<svg width="27" height="23" viewBox="0 0 27 23" fill="none" xmlns="http://www.w3.org/2000/svg">
<path fill-rule="evenodd" clip-rule="evenodd" d="M2.75672 2.83173C3.88188 1.7069 5.40773 1.07501 6.99872 1.07501C8.5897 1.07501 10.1156 1.7069 11.2407 2.83173L12.9987 4.58823L14.7567 2.83173C15.3102 2.25867 15.9723 1.80157 16.7043 1.48712C17.4363 1.17267 18.2236 1.00715 19.0203 1.00023C19.817 0.993304 20.6071 1.14511 21.3444 1.4468C22.0818 1.74848 22.7517 2.194 23.3151 2.75736C23.8784 3.32071 24.324 3.99063 24.6256 4.728C24.9273 5.46538 25.0791 6.25546 25.0722 7.05214C25.0653 7.84881 24.8998 8.63613 24.5853 9.36816C24.2709 10.1002 23.8138 10.7622 23.2407 11.3157L12.9987 21.5592L2.75672 11.3157C1.63189 10.1906 1 8.66471 1 7.07373C1 5.48274 1.63189 3.95689 2.75672 2.83173V2.83173Z" stroke="white" stroke-width="2" stroke-linejoin="round"/>
</svg>
