<svg width="21" height="20" viewBox="0 0 21 20" fill="none" xmlns="http://www.w3.org/2000/svg">
<path d="M9.56003 0.313909C9.7666 -0.104636 10.3634 -0.104636 10.57 0.313909L13.244 5.73203C13.326 5.89824 13.4846 6.01344 13.668 6.04009L19.6473 6.90893C20.1092 6.97604 20.2936 7.54367 19.9594 7.86946L15.6327 12.0869C15.5 12.2163 15.4394 12.4026 15.4708 12.5853L16.4921 18.5404C16.571 19.0004 16.0882 19.3513 15.6751 19.1341L10.3271 16.3224C10.163 16.2362 9.96702 16.2362 9.80297 16.3224L4.45496 19.1341C4.04183 19.3513 3.55898 19.0004 3.63788 18.5404L4.65926 12.5853C4.69059 12.4026 4.63003 12.2163 4.4973 12.0869L0.170675 7.86946C-0.163554 7.54367 0.0208777 6.97604 0.48277 6.90893L6.46203 6.04009C6.64544 6.01344 6.804 5.89824 6.88603 5.73203L9.56003 0.313909Z" fill="#FFC700"/>
</svg>
