<svg width="24" height="24" viewBox="0 0 24 24" fill="none" xmlns="http://www.w3.org/2000/svg">
<path d="M11.495 2.71381C11.7016 2.29527 12.2984 2.29527 12.505 2.71381L15.179 8.13194C15.261 8.29814 15.4196 8.41334 15.603 8.43999L21.5822 9.30883C22.0441 9.37595 22.2286 9.94357 21.8943 10.2694L17.5677 14.4868C17.435 14.6162 17.3744 14.8026 17.4058 14.9852L18.4271 20.9403C18.506 21.4004 18.0232 21.7512 17.6101 21.534L12.262 18.7224C12.098 18.6361 11.902 18.6361 11.7379 18.7224L6.38994 21.534C5.97681 21.7512 5.49396 21.4004 5.57286 20.9403L6.59424 14.9852C6.62557 14.8026 6.56501 14.6162 6.43229 14.4868L2.10566 10.2694C1.77143 9.94357 1.95586 9.37595 2.41775 9.30883L8.39701 8.43999C8.58043 8.41334 8.73898 8.29814 8.82101 8.13194L11.495 2.71381Z" stroke="#44DD8A" stroke-width="2" stroke-linejoin="round"/>
</svg>
